<svg xmlns="http://www.w3.org/2000/svg" width="24" height="24" viewBox="0 0 24 24"><path d="M0 7.244c3.071-3.24 7.314-5.244 12-5.244 4.687 0 8.929 2.004 12 5.244l-2.039 2.15c-2.549-2.688-6.071-4.352-9.961-4.352s-7.412 1.664-9.961 4.352l-2.039-2.15zm5.72 6.034c1.607-1.696 3.827-2.744 6.28-2.744s4.673 1.048 6.28 2.744l2.093-2.208c-2.143-2.261-5.103-3.659-8.373-3.659s-6.23 1.398-8.373 3.659l2.093 2.208zm3.658 3.859c.671-.708 1.598-1.145 2.622-1.145 1.023 0 1.951.437 2.622 1.145l2.057-2.17c-1.197-1.263-2.851-2.044-4.678-2.044s-3.481.782-4.678 2.044l2.055 2.17zm2.622 1.017c-1.062 0-1.923.861-1.923 1.923s.861 1.923 1.923 1.923 1.923-.861 1.923-1.923-.861-1.923-1.923-1.923z"/></svg>