<?xml version="1.0" encoding="utf-8"?>
<!-- Generator: Adobe Illustrator 16.0.0, SVG Export Plug-In . SVG Version: 6.00 Build 0)  -->
<!DOCTYPE svg PUBLIC "-//W3C//DTD SVG 1.0//EN" "http://www.w3.org/TR/2001/REC-SVG-20010904/DTD/svg10.dtd">
<svg version="1.0" id="Layer_1" xmlns="http://www.w3.org/2000/svg" xmlns:xlink="http://www.w3.org/1999/xlink" x="0px" y="0px"
	 width="100px" height="100px" viewBox="0 0 100 100" enable-background="new 0 0 100 100" xml:space="preserve">
<path d="M90,26.667C90,17.462,82.539,10,73.333,10c-9.205,0-16.666,7.462-16.666,16.667c0,8.063,5.726,14.787,13.333,16.332V60
	l-3.333,3.333V90H80V63.333L76.667,60V42.998C84.274,41.454,90,34.73,90,26.667z M73.333,36.667c-5.521,0-10-4.478-10-10
	s4.479-10,10-10c5.524,0,10,4.478,10,10S78.857,36.667,73.333,36.667z"/>
<polygon points="46.667,40.573 36.095,30 51.38,14.713 46.667,10 26.667,30 40,43.333 40,60 36.667,63.333 36.667,90 50,90 
	50,63.333 46.667,60 "/>
<polygon points="20,60 20,10 13.333,10 13.333,60 10,63.333 10,90 23.333,90 23.333,63.333 "/>
</svg>
